# xmcd
#
# Track frame offsets:
#	150
#	17906
#	35350
#	68780
#	95363
#	134408
#	158108
#	181243
#	219648
#	249278
#	277360
#
# Disc length: 4125 seconds
#
# Revision: 35
# Processed by: cddbd v1.5.2PL0 Copyright (c) Steve Scherf et al.
# Submitted via: Jack! The Knife 20 Magnifico
#
DISCID=9c101b0b
DTITLE=Iron Maiden - Dance Of Death
DYEAR=2003
DGENRE=Metal
TTITLE0=Wildest Dreams
TTITLE1=Rainmaker
TTITLE2=No More Lies
TTITLE3=Montsegur
TTITLE4=Dance Of Death
TTITLE5=Gates Of Tomorrow
TTITLE6=New Frontier
TTITLE7=Paschendale
TTITLE8=Face In The Sand
TTITLE9=Age Of Innocence
TTITLE10=Journeyman
EXTD=Kevin Shirley and Steve Harris
EXTT0=Harris, Smith
EXTT1=Dickinson, Harris, Murray
EXTT2=Steve Harris
EXTT3=Dickinson, Gers, Harris
EXTT4=Gers, Harris
EXTT5=Dickinson, Gers, Harris
EXTT6=Dickinson, McBrain, Smith
EXTT7=Harris, Smith
EXTT8=Dickinson, Harris, Smith
EXTT9=Harris, Murray
EXTT10=Dickinson, Harris, Smith
PLAYORDER=
